<svg width="2023" height="177" viewBox="0 0 2023 177" fill="none" xmlns="http://www.w3.org/2000/svg">
<path d="M45.3463 173.351L0 176.522L42.1539 138.469L87.5002 135.298L45.3463 173.351ZM126.182 167.698L80.8358 170.869L122.99 132.816L168.336 129.645L126.182 167.698ZM207.016 162.046L161.67 165.217L203.824 127.164L249.17 123.993L207.016 162.046ZM287.851 156.393L242.505 159.564L284.658 121.511L330.005 118.34L287.851 156.393ZM368.685 150.741L323.338 153.912L365.492 115.859L410.839 112.688L368.685 150.741ZM449.52 145.088L404.174 148.259L446.327 110.206L491.673 107.035L449.52 145.088ZM530.354 139.436L485.008 142.607L527.162 104.554L572.508 101.383L530.354 139.436ZM611.188 133.783L565.842 136.954L607.996 98.9011L653.342 95.7301L611.188 133.783ZM690.987 128.203L645.64 131.374L687.794 93.321L733.14 90.1501L690.987 128.203ZM771.821 122.551L726.475 125.722L768.629 87.6685L813.975 84.4976L771.821 122.551ZM852.655 116.898L807.309 120.069L849.463 82.016L894.809 78.8451L852.655 116.898ZM933.491 111.246L888.145 114.417L930.299 76.3634L975.644 73.1926L933.491 111.246ZM1013.29 105.666L967.943 108.837L1010.1 70.7835L1055.44 67.6125L1013.29 105.666ZM1094.12 100.013L1048.78 103.184L1090.93 65.1309L1136.28 61.96L1094.12 100.013ZM1174.96 94.3607L1129.61 97.5316L1171.77 59.4784L1217.11 56.3075L1174.96 94.3607ZM1255.79 88.7082L1210.45 91.8791L1252.6 53.826L1297.95 50.6551L1255.79 88.7082ZM1335.59 83.1282L1290.24 86.2991L1332.4 48.2459L1377.74 45.075L1335.59 83.1282ZM1416.42 77.4757L1371.08 80.6466L1413.23 42.5935L1458.58 39.4226L1416.42 77.4757ZM1497.26 71.8232L1451.91 74.994L1494.07 36.941L1539.41 33.77L1497.26 71.8232ZM1578.09 66.1707L1532.75 69.3416L1574.9 31.2884L1620.25 28.1175L1578.09 66.1707ZM1657.89 60.5906L1612.55 63.7615L1654.7 25.7084L1700.05 22.5375L1657.89 60.5906ZM1738.73 54.9381L1693.38 58.109L1735.53 20.0559L1780.88 16.8849L1738.73 54.9381ZM1819.56 49.2857L1774.21 52.4566L1816.37 14.4034L1861.71 11.2325L1819.56 49.2857ZM1900.39 43.6332L1855.05 46.8041L1897.2 8.75096L1942.55 5.58004L1900.39 43.6332ZM2022.35 0L1980.19 38.0532L1934.85 41.2241L1977 3.17092L2022.35 0Z" fill="black"/>
</svg>
