<svg width="54" height="28" viewBox="0 0 54 28" fill="none" xmlns="http://www.w3.org/2000/svg">
<path d="M13.8613 1.17358C14.2431 0.982743 14.702 1.03969 15.0264 1.31714C15.3507 1.59461 15.4781 2.03929 15.3486 2.44604L12.3936 11.7302L17.5781 9.13843C17.7255 9.06476 17.888 9.02618 18.0527 9.02612H21.2393C21.7182 9.02626 22.1378 9.34722 22.2637 9.80933C22.3895 10.2715 22.1902 10.7608 21.7773 11.0037C18.7969 12.7569 11.8275 17.4 7.68848 21.9529C7.39335 22.2775 6.92875 22.3875 6.51953 22.2292C6.11048 22.071 5.84089 21.6776 5.84082 21.239C5.84082 19.2408 5.80641 17.713 5.66699 16.6287C5.59726 16.0863 5.50727 15.7129 5.41113 15.4705C5.3786 15.3884 5.3494 15.334 5.32812 15.2986C5.31764 15.3013 5.30524 15.3024 5.29199 15.3064C5.11678 15.3595 4.82735 15.5045 4.39648 15.822C3.53885 16.454 2.36937 17.5829 0.780273 19.3044C0.451151 19.6609 -0.0779984 19.7489 -0.504883 19.5183C-0.931681 19.2877 -1.14794 18.7966 -1.03027 18.3259C0.0949567 13.8255 2.84412 10.0342 5.75684 7.14429C8.6716 4.25234 11.8174 2.19557 13.8613 1.17358Z" fill="white" stroke="#222222" stroke-width="2.1239" stroke-linejoin="round"/>
<path d="M39.2358 1.17358C38.8541 0.982743 38.3952 1.03969 38.0708 1.31714C37.7465 1.59461 37.6191 2.03929 37.7485 2.44604L40.7036 11.7302L35.519 9.13843C35.3717 9.06476 35.2092 9.02618 35.0444 9.02612H31.8579C31.379 9.02626 30.9593 9.34722 30.8335 9.80933C30.7076 10.2715 30.9069 10.7608 31.3198 11.0037C34.3003 12.7569 41.2696 17.4 45.4087 21.9529C45.7038 22.2775 46.1684 22.3875 46.5776 22.2292C46.9867 22.071 47.2563 21.6776 47.2563 21.239C47.2563 19.2408 47.2908 17.713 47.4302 16.6287C47.4999 16.0863 47.5899 15.7129 47.686 15.4705C47.7186 15.3884 47.7478 15.334 47.769 15.2986C47.7795 15.3013 47.7919 15.3024 47.8052 15.3064C47.9804 15.3595 48.2698 15.5045 48.7007 15.822C49.5583 16.454 50.7278 17.5829 52.3169 19.3044C52.646 19.6609 53.1752 19.7489 53.6021 19.5183C54.0288 19.2877 54.2451 18.7966 54.1274 18.3259C53.0022 13.8255 50.2531 10.0342 47.3403 7.14429C44.4256 4.25234 41.2798 2.19557 39.2358 1.17358Z" fill="white" stroke="#222222" stroke-width="2.1239" stroke-linejoin="round"/>
<path d="M5.3098 15.9292L1.06201 20.177L5.84078 20.708L5.3098 15.9292Z" fill="#222222"/>
<path d="M13.2744 17.5221L10.6195 20.177L15.3983 20.708L13.2744 17.5221Z" fill="#222222"/>
<circle cx="26.549" cy="13.8053" r="12.7434" fill="white" stroke="#222222" stroke-width="2.1239"/>
<path d="M17.1266 10.6194L25.8804 16.5846C25.4544 17.8629 23.3239 21.2716 19.9152 19.1411C17.1883 17.4368 16.7004 13.602 17.1266 10.6194Z" fill="#8D41FF"/>
<path d="M35.9706 10.6194L27.2167 16.5846C27.6427 17.8629 29.7733 21.2716 33.182 19.1411C35.9089 17.4368 36.3968 13.602 35.9706 10.6194Z" fill="#8D41FF"/>
</svg>
