<svg width="50" height="30" viewBox="0 0 50 30" fill="none" xmlns="http://www.w3.org/2000/svg">
<path d="M16.5912 6.14478H26.423V14.7476H14.1333L16.5912 6.14478Z" fill="#ACE11C" stroke="#222222" stroke-width="1.84346"/>
<path d="M35.333 15.0547V27.959H10.1387V27.3447H3.99414V19.3564H10.1387V15.0547H35.333Z" fill="white" stroke="#222222" stroke-width="1.84346"/>
<path d="M49.8809 22.6948L43.6309 30.5728L43.3535 30.9214H3.14648L2.87012 30.5444L-0.743164 25.6128L-1.81836 24.146H29.7588L31.5049 22.0171L31.7715 21.6919L32.1914 21.6802L49.1328 21.2007L51.1113 21.144L49.8809 22.6948Z" fill="#11BBE6" stroke="#222222" stroke-width="1.84346"/>
<circle cx="14.9014" cy="19.2027" r="1.99708" fill="#222222"/>
<circle cx="20.8926" cy="19.2027" r="1.99708" fill="#222222"/>
<circle cx="26.8838" cy="19.2027" r="1.99708" fill="#222222"/>
<path d="M26.6982 -0.921875L26.8965 -0.267578L30.9932 13.251L31.3535 14.4404H23.0439V-0.921875H26.6982Z" fill="#11BBE6" stroke="#222222" stroke-width="1.84346"/>
</svg>
