<svg width="29" height="236" viewBox="0 0 29 236" fill="none" xmlns="http://www.w3.org/2000/svg">
<g opacity="0.5">
<mask id="mask0_577_606" style="mask-type:alpha" maskUnits="userSpaceOnUse" x="0" y="0" width="29" height="236">
<path d="M14.5 9.09091L0 0V10.9091L14.5 20V9.09091Z" fill="#727272"/>
<path d="M14.5 68.0909L0 59V69.9091L14.5 79V68.0909Z" fill="#727272"/>
<path d="M14.5 28.0909L0 19V29.9091L14.5 39V28.0909Z" fill="#727272"/>
<path d="M14.5 87.0909L0 78V88.9091L14.5 98V87.0909Z" fill="#727272"/>
<path d="M14.5 48.0909L0 39V49.9091L14.5 59V48.0909Z" fill="#727272"/>
<path d="M14.5 107.091L0 98V108.909L14.5 118V107.091Z" fill="#727272"/>
<path d="M14.5 127.091L0 118V128.909L14.5 138V127.091Z" fill="#727272"/>
<path d="M14.5 186.091L0 177V187.909L14.5 197V186.091Z" fill="#727272"/>
<path d="M14.5 146.091L0 137V147.909L14.5 157V146.091Z" fill="#727272"/>
<path d="M14.5 205.091L0 196V206.909L14.5 216V205.091Z" fill="#727272"/>
<path d="M14.5 166.091L0 157V167.909L14.5 177V166.091Z" fill="#727272"/>
<path d="M14.5 225.091L0 216V226.909L14.5 236V225.091Z" fill="#727272"/>
<path d="M14.5 9.09091L29 0V10.9091L14.5 20V9.09091Z" fill="#727272"/>
<path d="M14.5 68.0909L29 59V69.9091L14.5 79V68.0909Z" fill="#727272"/>
<path d="M14.5 28.0909L29 19V29.9091L14.5 39V28.0909Z" fill="#727272"/>
<path d="M14.5 87.0909L29 78V88.9091L14.5 98V87.0909Z" fill="#727272"/>
<path d="M14.5 48.0909L29 39V49.9091L14.5 59V48.0909Z" fill="#727272"/>
<path d="M14.5 107.091L29 98V108.909L14.5 118V107.091Z" fill="#727272"/>
<path d="M14.5 127.091L29 118V128.909L14.5 138V127.091Z" fill="#727272"/>
<path d="M14.5 186.091L29 177V187.909L14.5 197V186.091Z" fill="#727272"/>
<path d="M14.5 146.091L29 137V147.909L14.5 157V146.091Z" fill="#727272"/>
<path d="M14.5 205.091L29 196V206.909L14.5 216V205.091Z" fill="#727272"/>
<path d="M14.5 166.091L29 157V167.909L14.5 177V166.091Z" fill="#727272"/>
<path d="M14.5 225.091L29 216V226.909L14.5 236V225.091Z" fill="#727272"/>
</mask>
<g mask="url(#mask0_577_606)">
<rect x="6.82373" y="15" width="14.5" height="207" fill="#D9D9D9"/>
</g>
</g>
</svg>
