<svg width="148" height="89" viewBox="0 0 148 89" fill="none" xmlns="http://www.w3.org/2000/svg">
<path d="M0 48.9629C13.9742 38.9505 25.2488 25.7635 31.9183 12.2102H5.87551V0H145.3V12.2102H102.107V36.9969C113.699 31.9907 126.085 25.3972 133.549 20.391L144.982 31.0139C133.231 37.9737 116.875 46.3987 102.107 52.6259V67.2781C102.107 71.4296 103.695 72.0401 111.158 72.0401H120.051C128.467 72.0401 129.579 71.4296 130.214 67.2781C130.532 65.5687 131.167 55.6785 131.008 53.8469L147.523 56.8995C147.046 60.3183 146.252 68.9876 145.935 72.4064C145.141 81.9304 139.583 84.8608 123.862 84.8608H105.283C91.1497 84.8608 85.1155 81.0757 85.1155 71.1854V12.2102H50.0212C48.4332 15.7511 46.6865 19.17 44.7809 22.4667H78.446V34.3106C70.1885 57.7542 55.7379 71.0633 16.0385 88.1576L3.33475 77.4126C40.3346 63.6151 55.2615 50.6723 61.7722 34.6769H36.6822L32.3947 39.8052L47.6393 47.6197L36.9998 57.3879C32.5535 54.8237 27.6308 52.0154 22.8668 49.4513C19.2145 52.748 15.2446 56.1669 10.7982 59.4636L0 48.9629Z" fill="#585858"/>
</svg>
