<svg width="111" height="89" viewBox="0 0 111 89" fill="none" xmlns="http://www.w3.org/2000/svg">
<path d="M109.215 3.24219L88.2148 83.7422L87.6377 85.9561L85.3818 85.5771L31.5391 76.5312L4.84277 88.1113L14.6582 72.4053L0.972656 57.8223L0 56.7852L0.393555 55.4189L14.9404 4.91895L15.4434 3.17383L17.2588 3.1123L106.712 0.112305L110.061 0L109.215 3.24219Z" fill="white"/>
<path d="M109.215 3.24219L110.666 3.62082L110.666 3.62078L109.215 3.24219ZM88.2148 83.7422L86.7634 83.3636L86.7634 83.3638L88.2148 83.7422ZM87.6377 85.9561L87.3892 87.4353L88.7429 87.6627L89.0892 86.3344L87.6377 85.9561ZM85.3818 85.5771L85.1333 87.0564L85.1334 87.0564L85.3818 85.5771ZM31.5391 76.5312L31.7876 75.052L31.3496 74.9784L30.9421 75.1551L31.5391 76.5312ZM4.84277 88.1113L3.57074 87.3164L1.0143 91.4071L5.43969 89.4874L4.84277 88.1113ZM14.6582 72.4053L15.9302 73.2002L16.5423 72.2209L15.752 71.3788L14.6582 72.4053ZM0.972656 57.8223L-0.121457 58.8484L-0.121126 58.8487L0.972656 57.8223ZM0 56.7852L-1.44139 56.3699L-1.67742 57.1893L-1.09411 57.8113L0 56.7852ZM0.393555 55.4189L1.83494 55.8342L1.83495 55.8341L0.393555 55.4189ZM14.9404 4.91895L13.4991 4.50356L13.499 4.50374L14.9404 4.91895ZM15.4434 3.17383L15.3926 1.67469L14.3037 1.71159L14.002 2.75845L15.4434 3.17383ZM17.2588 3.1123L17.2085 1.61315L17.208 1.61317L17.2588 3.1123ZM106.712 0.112305L106.762 1.61146V1.61146L106.712 0.112305ZM110.061 0L111.512 0.378597L112.019 -1.56654L110.01 -1.49916L110.061 0ZM109.215 3.24219L107.763 2.86355L86.7634 83.3636L88.2148 83.7422L89.6663 84.1208L110.666 3.62082L109.215 3.24219ZM88.2148 83.7422L86.7634 83.3638L86.1862 85.5777L87.6377 85.9561L89.0892 86.3344L89.6663 84.1206L88.2148 83.7422ZM87.6377 85.9561L87.8862 84.4768L85.6303 84.0979L85.3818 85.5771L85.1334 87.0564L87.3892 87.4353L87.6377 85.9561ZM85.3818 85.5771L85.6304 84.0979L31.7876 75.052L31.5391 76.5312L31.2905 78.0105L85.1333 87.0564L85.3818 85.5771ZM31.5391 76.5312L30.9421 75.1551L4.24586 86.7352L4.84277 88.1113L5.43969 89.4874L32.136 77.9074L31.5391 76.5312ZM4.84277 88.1113L6.1148 88.9063L15.9302 73.2002L14.6582 72.4053L13.3862 71.6103L3.57074 87.3164L4.84277 88.1113ZM14.6582 72.4053L15.752 71.3788L2.06644 56.7958L0.972656 57.8223L-0.121126 58.8487L13.5644 73.4317L14.6582 72.4053ZM0.972656 57.8223L2.06677 56.7962L1.09411 55.759L0 56.7852L-1.09411 57.8113L-0.121457 58.8484L0.972656 57.8223ZM0 56.7852L1.44139 57.2004L1.83494 55.8342L0.393555 55.4189L-1.04783 55.0037L-1.44139 56.3699L0 56.7852ZM0.393555 55.4189L1.83495 55.8341L16.3818 5.33415L14.9404 4.91895L13.499 4.50374L-1.04784 55.0037L0.393555 55.4189ZM14.9404 4.91895L16.3818 5.33433L16.8847 3.58921L15.4434 3.17383L14.002 2.75845L13.4991 4.50356L14.9404 4.91895ZM15.4434 3.17383L15.4942 4.67297L17.3096 4.61144L17.2588 3.1123L17.208 1.61317L15.3926 1.67469L15.4434 3.17383ZM17.2588 3.1123L17.3091 4.61146L106.762 1.61146L106.712 0.112305L106.662 -1.38685L17.2085 1.61315L17.2588 3.1123ZM106.712 0.112305L106.762 1.61146L110.111 1.49916L110.061 0L110.01 -1.49916L106.662 -1.38685L106.712 0.112305ZM110.061 0L108.609 -0.378597L107.763 2.86359L109.215 3.24219L110.666 3.62078L111.512 0.378597L110.061 0Z" fill="black"/>
<path d="M32 30.6548V56.5L63.7077 62.6113L74.2959 36.336L69.3547 30.6548H51.7077L54.5312 17.8722L51.7077 13.6113L39.0018 30.6548H32Z" fill="#FF5E00"/>
</svg>
