<svg width="181" height="47" viewBox="0 0 181 47" fill="none" xmlns="http://www.w3.org/2000/svg">
<circle cx="23.5436" cy="23.7255" r="10.9547" transform="rotate(-45 23.5436 23.7255)" fill="#CECECE"/>
<path d="M11.6632 11.6633L22.7572 14.8292L14.8292 22.7573L11.6632 11.6633Z" fill="#CECECE"/>
<path d="M34.9896 34.9898L23.8956 31.8238L31.8236 23.8958L34.9896 34.9898Z" fill="#CECECE"/>
<path d="M34.9899 11.6631L31.824 22.7571L23.8959 14.8291L34.9899 11.6631Z" fill="#CECECE"/>
<path d="M11.6634 34.9897L14.8294 23.8957L22.7574 31.8238L11.6634 34.9897Z" fill="#CECECE"/>
<circle cx="58.3443" cy="23.7255" r="10.9547" transform="rotate(-45 58.3443 23.7255)" fill="#CECECE"/>
<path d="M46.464 11.6633L57.558 14.8292L49.63 22.7573L46.464 11.6633Z" fill="#CECECE"/>
<path d="M69.7904 34.9898L58.6964 31.8238L66.6244 23.8958L69.7904 34.9898Z" fill="#CECECE"/>
<path d="M69.7902 11.6632L66.6243 22.7572L58.6962 14.8292L69.7902 11.6632Z" fill="#CECECE"/>
<path d="M46.4642 34.9897L49.6301 23.8957L57.5582 31.8238L46.4642 34.9897Z" fill="#CECECE"/>
<path d="M100.513 15.9793C104.791 20.2574 104.791 27.1935 100.513 31.4716C96.2352 35.7497 89.2991 35.7497 85.021 31.4716C80.743 27.1935 80.743 20.2574 85.021 15.9793C89.2991 11.7012 96.2352 11.7012 100.513 15.9793Z" fill="#CECECE"/>
<path d="M80.8867 11.6633L91.9807 14.8292L84.0527 22.7573L80.8867 11.6633Z" fill="#CECECE"/>
<path d="M104.213 34.9897L93.1192 31.8238L101.047 23.8957L104.213 34.9897Z" fill="#CECECE"/>
<path d="M104.213 11.6632L101.047 22.7572L93.1193 14.8292L104.213 11.6632Z" fill="#CECECE"/>
<path d="M80.8868 34.9897L84.0528 23.8956L91.9808 31.8237L80.8868 34.9897Z" fill="#CECECE"/>
<circle cx="125.756" cy="23.7255" r="10.9547" transform="rotate(-45 125.756 23.7255)" stroke="#767676" stroke-width="1.43429"/>
<path d="M113.876 11.6634L124.97 14.8294L117.042 22.7574L113.876 11.6634Z" stroke="#767676" stroke-width="1.43429"/>
<path d="M137.202 34.9898L126.108 31.8238L134.036 23.8958L137.202 34.9898Z" stroke="#767676" stroke-width="1.43429"/>
<path d="M137.202 11.6631L134.036 22.7571L126.108 14.8291L137.202 11.6631Z" stroke="#767676" stroke-width="1.43429"/>
<path d="M113.875 34.9897L117.041 23.8957L124.969 31.8238L113.875 34.9897Z" stroke="#767676" stroke-width="1.43429"/>
<circle cx="157.31" cy="23.7255" r="10.9547" transform="rotate(-45 157.31 23.7255)" stroke="#767676" stroke-width="1.43429"/>
<path d="M145.43 11.6633L156.524 14.8292L148.596 22.7573L145.43 11.6633Z" stroke="#767676" stroke-width="1.43429"/>
<path d="M168.756 34.9898L157.662 31.8238L165.59 23.8958L168.756 34.9898Z" stroke="#767676" stroke-width="1.43429"/>
<path d="M168.756 11.6632L165.59 22.7572L157.662 14.8292L168.756 11.6632Z" stroke="#767676" stroke-width="1.43429"/>
<path d="M145.43 34.9897L148.596 23.8957L156.524 31.8238L145.43 34.9897Z" stroke="#767676" stroke-width="1.43429"/>
</svg>
