<svg width="160" height="98" viewBox="0 0 160 98" fill="none" xmlns="http://www.w3.org/2000/svg">
<path d="M126.289 72.04V76.8369H117.397V72.04H126.289ZM151.538 4.79686H12.1142V17.0068H38.1567C31.4873 30.5601 20.2129 43.7472 6.2388 53.7595L17.0367 64.2606C21.483 60.9638 25.4531 57.5448 29.1055 54.2481C33.8694 56.8122 38.792 59.6208 43.2383 62.1849L53.8778 52.4165L38.6332 44.6019L42.9209 39.4738H68.0106C61.4999 55.4691 46.5728 68.412 9.57309 82.2095L22.2773 92.9541C61.9764 75.86 76.4271 62.551 84.6845 39.1075V27.2634H51.0193C52.9249 23.9667 54.6719 20.5478 56.2599 17.0068H91.3537V75.9824L91.3586 76.4415C91.5418 85.8383 97.4181 89.5398 110.865 89.6549L111.521 89.6577H130.1L130.83 89.6554C145.994 89.5644 151.392 86.5784 152.173 77.2032C152.491 73.7843 153.285 65.1152 153.762 61.6963L137.247 58.644C137.405 60.4761 136.77 70.3658 136.452 72.0752C135.817 76.2264 134.705 76.8369 126.289 76.8369V72.04C128.074 72.04 129.305 72.0095 130.184 71.9473C130.207 71.818 130.232 71.6745 130.256 71.5144C130.262 71.4751 130.269 71.4356 130.277 71.3964C130.384 70.8195 130.612 68.1867 130.796 65.1792C130.884 63.7431 130.957 62.3159 130.998 61.1464C131.018 60.5606 131.03 60.0549 131.033 59.6535C131.034 59.4531 131.032 59.2898 131.03 59.1625C131.028 59.0994 131.026 59.0501 131.025 59.0136L131.022 58.963C130.89 57.4407 131.707 55.9607 133.224 54.977C134.693 54.024 136.649 53.6467 138.524 53.9483L138.705 53.9797L155.219 57.0325L155.502 57.0901C158.392 57.7345 160.288 59.8857 159.964 62.2074C159.503 65.517 158.719 74.0649 158.396 77.5452C157.945 82.8753 156.05 87.7371 150.393 90.8869C145.205 93.7754 138.09 94.4546 130.1 94.4546H111.521C103.994 94.4546 97.0566 93.4889 92.0519 90.1538C86.8231 86.6694 85.1153 81.5836 85.1153 75.9824V52.9889C81.3581 59.7708 76.5238 65.8411 69.9547 71.581C59.6712 80.5663 45.4336 88.4812 25.3252 97.1397C22.8708 98.1965 19.8122 97.8565 17.8476 96.3321L17.6612 96.1813L4.95699 85.4361C3.63439 84.3174 3.07525 82.7847 3.44794 81.3002C3.82066 79.8157 5.08185 78.553 6.85107 77.8932C19.2557 73.2674 28.9627 68.8026 36.5977 64.358C34.4734 63.1415 32.2867 61.9007 30.0967 60.6822C27.404 63.0098 24.508 65.3846 21.3671 67.7135C20.0996 68.6533 18.3744 69.1376 16.6176 69.0467C14.9705 68.9614 13.4391 68.3778 12.3542 67.4301L12.1434 67.2357L1.34489 56.735C-0.670572 54.7751 -0.391571 51.9537 1.98579 50.2504C12.9931 42.3638 22.2739 32.3577 28.7369 21.8037H12.1142C8.66876 21.8037 5.8757 19.6561 5.8757 17.0068V4.79686C5.8757 2.14763 8.66876 0 12.1142 0H151.538C154.983 0 157.776 2.14763 157.776 4.79686V17.0068C157.776 19.6561 154.983 21.8037 151.538 21.8037H144.207C144.268 21.8507 144.328 21.898 144.387 21.947L144.593 22.1297L156.027 32.7522L156.222 32.9437C157.166 33.917 157.597 35.1323 157.42 36.3446C157.232 37.6379 156.368 38.817 155.028 39.6111C143.901 46.201 128.765 54.0581 114.584 60.2385V71.9871C115.285 72.0215 116.196 72.04 117.397 72.04V76.8369L116.714 76.835C110.057 76.7966 108.447 76.141 108.35 72.4537L108.345 72.0752V57.4227C123.113 51.1955 139.469 42.7704 151.221 35.8106L139.787 25.1877C132.324 30.1939 119.937 36.7874 108.345 41.7936V17.0068H151.538V4.79686ZM56.4049 47.9466C57.3309 46.7327 58.1656 45.5083 58.921 44.2707H49.2331L56.4049 47.9466ZM114.584 33.34C122.601 29.4434 130.197 25.2149 135.339 21.8037H114.584V33.34ZM60.6481 21.8037C60.5408 22.0251 60.4333 22.2461 60.3246 22.4665H84.6845C84.8293 22.4665 84.9729 22.4717 85.1153 22.4792V21.8037H60.6481Z" fill="black"/>
</svg>
