<svg width="181" height="47" viewBox="0 0 181 47" fill="none" xmlns="http://www.w3.org/2000/svg">
<circle cx="23.544" cy="23.7256" r="10.9547" transform="rotate(-45 23.544 23.7256)" fill="#CECECE"/>
<path d="M11.6632 11.6634L22.7572 14.8294L14.8292 22.7574L11.6632 11.6634Z" fill="#CECECE"/>
<path d="M34.9901 34.9899L23.8961 31.824L31.8241 23.8959L34.9901 34.9899Z" fill="#CECECE"/>
<path d="M34.9894 11.6635L31.8235 22.7575L23.8954 14.8294L34.9894 11.6635Z" fill="#CECECE"/>
<path d="M11.6629 34.9901L14.8289 23.8961L22.7569 31.8241L11.6629 34.9901Z" fill="#CECECE"/>
<circle cx="58.3448" cy="23.7256" r="10.9547" transform="rotate(-45 58.3448 23.7256)" fill="#CECECE"/>
<path d="M46.464 11.6637L57.558 14.8296L49.63 22.7577L46.464 11.6637Z" fill="#CECECE"/>
<path d="M69.7909 34.9899L58.6969 31.824L66.6249 23.8959L69.7909 34.9899Z" fill="#CECECE"/>
<path d="M69.7902 11.6635L66.6243 22.7575L58.6962 14.8294L69.7902 11.6635Z" fill="#CECECE"/>
<path d="M46.4637 34.9898L49.6297 23.8958L57.5577 31.8239L46.4637 34.9898Z" fill="#CECECE"/>
<path d="M100.513 15.9794C104.791 20.2575 104.791 27.1936 100.513 31.4717C96.2352 35.7498 89.2991 35.7498 85.021 31.4717C80.743 27.1936 80.743 20.2575 85.021 15.9794C89.2991 11.7013 96.2352 11.7013 100.513 15.9794Z" fill="#CECECE"/>
<path d="M80.8867 11.6634L91.9807 14.8293L84.0527 22.7574L80.8867 11.6634Z" fill="#CECECE"/>
<path d="M104.213 34.9898L93.1192 31.8239L101.047 23.8959L104.213 34.9898Z" fill="#CECECE"/>
<path d="M104.213 11.6633L101.047 22.7573L93.1193 14.8293L104.213 11.6633Z" fill="#CECECE"/>
<path d="M80.8868 34.9898L84.0528 23.8958L91.9808 31.8238L80.8868 34.9898Z" fill="#CECECE"/>
<circle cx="125.755" cy="23.7256" r="10.9547" transform="rotate(-45 125.755 23.7256)" stroke="#767676" stroke-width="1.43429"/>
<path d="M113.874 11.6634L124.968 14.8294L117.04 22.7574L113.874 11.6634Z" stroke="#767676" stroke-width="1.43429"/>
<path d="M137.201 34.9899L126.107 31.824L134.035 23.8959L137.201 34.9899Z" stroke="#767676" stroke-width="1.43429"/>
<path d="M137.201 11.6632L134.035 22.7572L126.107 14.8292L137.201 11.6632Z" stroke="#767676" stroke-width="1.43429"/>
<path d="M113.875 34.9898L117.041 23.8958L124.969 31.8239L113.875 34.9898Z" stroke="#767676" stroke-width="1.43429"/>
<circle cx="157.311" cy="23.7256" r="10.9547" transform="rotate(-45 157.311 23.7256)" stroke="#767676" stroke-width="1.43429"/>
<path d="M145.43 11.6637L156.524 14.8296L148.596 22.7577L145.43 11.6637Z" stroke="#767676" stroke-width="1.43429"/>
<path d="M168.757 34.9899L157.663 31.824L165.591 23.8959L168.757 34.9899Z" stroke="#767676" stroke-width="1.43429"/>
<path d="M168.756 11.6635L165.59 22.7575L157.662 14.8294L168.756 11.6635Z" stroke="#767676" stroke-width="1.43429"/>
<path d="M145.43 34.9898L148.595 23.8958L156.524 31.8239L145.43 34.9898Z" stroke="#767676" stroke-width="1.43429"/>
</svg>
